<?xml version="1.0" encoding="UTF-8"?>
<svg id="Layer_1" xmlns="http://www.w3.org/2000/svg" version="1.1" viewBox="0 0 184.02 175.52">
  <!-- Generator: Adobe Illustrator 30.0.0, SVG Export Plug-In . SVG Version: 2.1.1 Build 123)  -->
  <defs>
    <style>
      .st0 {
        fill: #231f20;
      }
    </style>
  </defs>
  <path class="st0" d="M126.78,108.5c-.37-.12-.67-.4-.79-.77h0l-13.85-40.51-41.07-.03c-.39,0-.75-.18-.98-.49h0c-.23-.31-.3-.71-.18-1.08h0L89.99.86c.12-.37.4-.67.77-.79h0c.37-.12.77-.07,1.1.16h0l91.65,64.79c.32.23.51.59.51.98h0c0,.39-.18.76-.49.99h0l-55.66,41.33c-.21.16-.47.24-.73.24h0c-.12,0-.24-.02-.36-.05h0ZM72.72,64.76l40.29.03c.52,0,.98.33,1.15.82h0l13.6,39.76,52.98-39.34L91.82,3.18l-19.1,61.58h0Z"/>
  <g>
    <path class="st0" d="M36.59,175.46c-.37-.12-.67-.41-.79-.78h0l-.21-.64L.07,66.38c-.17-.5.01-1.05.44-1.36h0c.43-.31,1.01-.31,1.44,0h0l56.72,41.41-.72.98-.72.98L3.56,69.22l34.02,103.1,53.14-39.47-33.5-24.45.72-.98.72-.98,34.83,25.43c.31.23.5.59.5.98h0c0,.39-.18.75-.49.98h0l-55.82,41.46c-.21.16-.47.24-.73.24h0c-.12,0-.25-.02-.37-.06h0Z"/>
    <path class="st0" d="M36.84,174.66c-.64-.2-1-.88-.8-1.52h0l20.66-65.99c.2-.64.88-1,1.52-.8h0c.64.2,1,.88.8,1.52h0l-20.66,65.99c-.16.52-.64.85-1.16.85h0c-.12,0-.24-.02-.37-.05h0Z"/>
    <path class="st0" d="M100.54,108.56v-1.22l1.17.35-1.17-.35v1.22c-.39,0-.75-.18-.98-.49h0c-.23-.31-.3-.71-.19-1.08h0l12.42-41.34c.15-.51.61-.86,1.14-.87h0c.53,0,1,.32,1.18.82h0l14.17,41.34c.13.37.07.78-.16,1.1h0c-.23.32-.6.51-.99.51h-26.6ZM125.44,106.13l-12.39-36.15-10.87,36.15h23.26Z"/>
  </g>
  <path class="st0" d="M92.06,133.83L.5,66.99l.72-.98-.72.98c-.42-.31-.6-.86-.44-1.36H.06c.16-.5.63-.84,1.16-.84h111.75c.39,0,.75.18.98.49h0c.23.31.3.71.19,1.08h0l-20.19,66.84c-.12.38-.41.68-.78.8h0c-.12.04-.26.06-.39.06h0c-.25,0-.5-.08-.72-.24h0ZM92.11,130.85l19.22-63.63H4.95l87.16,63.63h0Z"/>
</svg>